<svg id="Capa_1" enable-background="new 0 0 512 512" height="512" viewBox="0 0 512 512" width="512" xmlns="http://www.w3.org/2000/svg"><g><g><g><g><path d="m384.276 274.644c-5.522 0-10-4.478-10-10v-58.074h-4.551c-5.522 0-10-4.478-10-10s4.478-10 10-10h14.551c5.522 0 10 4.478 10 10v68.074c0 5.522-4.478 10-10 10z"/></g></g><g><g><path d="m235.44 382.06c-4.248 0-8.085-2.787-9.462-6.789-1.379-4.007.034-8.562 3.376-11.145 3.218-2.486 7.744-2.711 11.225-.639 3.588 2.136 5.473 6.436 4.661 10.522-.917 4.618-5.091 8.051-9.8 8.051z"/></g></g><path d="m484.036 226.606c0-57.929-47.119-105.057-105.036-105.057-6.322 0-12.516.562-18.534 1.638-12.779-19.712-30.128-36.257-50.457-48.062-10.657-6.189-22.032-11.003-33.833-14.363v-19.842c0-22.563-18.356-40.92-40.92-40.92-22.563 0-40.92 18.356-40.92 40.92v19.841c-62.403 17.841-108.217 75.432-108.217 143.529v45.483c0 29.338-3.546 58.659-10.54 87.147l-6.175 25.151c-22.95.581-41.44 19.432-41.44 42.543 0 23.453 19.08 42.533 42.533 42.533h102.777v2.87c0 34.177 27.805 61.982 61.983 61.982s61.983-27.806 61.983-61.982v-2.87h102.776c23.452 0 42.532-19.08 42.532-42.557 0-23.088-18.49-41.938-41.439-42.519l-6.175-25.151c-.509-2.07-1.001-4.156-1.476-6.25 51.101-7.066 90.578-51.04 90.578-104.064zm-269.7-185.686c0-11.535 9.385-20.92 20.92-20.92s20.92 9.385 20.92 20.92v15.602c-6.906-.976-13.897-1.472-20.92-1.472-7.099 0-14.083.499-20.92 1.464zm62.904 409.098c0 23.149-18.834 41.982-41.983 41.982s-41.983-18.833-41.983-41.982v-2.87h83.966zm145.308-45.404c0 12.425-10.108 22.533-22.532 22.533h-329.52c-12.425 0-22.533-10.108-22.533-22.557 0-12.425 10.108-22.533 22.533-22.533h6.574c.062.001.125.002.187.002.061 0 .121-.001.182-.002h112.611c5.523 0 10-4.477 10-10 0-5.522-4.477-10-10-10h-100.049l5-20.367c7.377-30.049 11.118-60.974 11.118-91.917v-45.483c0-71.264 57.931-129.24 129.137-129.24 41.566 0 80.841 20.415 104.948 53.926-38.772 15.467-66.241 53.4-66.241 97.631 0 55.967 43.982 101.852 99.192 104.896.741 3.413 1.529 6.822 2.355 10.188l5 20.367h-100.048c-5.522 0-10 4.478-10 10 0 5.523 4.478 10 10 10h112.611c.061.001.121.002.182.002.062 0 .124-.001.186-.002h6.574c12.425 0 22.533 10.108 22.533 22.556zm-43.548-92.951c-46.89 0-85.037-38.156-85.037-85.057 0-46.9 38.148-85.057 85.037-85.057s85.036 38.156 85.036 85.057-38.147 85.057-85.036 85.057z"/></g>
</g></svg>